<mxfile host="app.diagrams.net" agent="Mozilla/5.0 (Windows NT 10.0; Win64; x64) AppleWebKit/537.36 (KHTML, like Gecko) Chrome/129.0.0.0 Safari/537.36" version="24.7.17">
  <diagram name="1 oldal" id="39Sv8bva1wF6lLJyQfV2">
    <mxGraphModel dx="2261" dy="780" grid="1" gridSize="10" guides="1" tooltips="1" connect="1" arrows="1" fold="1" page="1" pageScale="1" pageWidth="827" pageHeight="1169" math="0" shadow="0">
      <root>
        <mxCell id="0" />
        <mxCell id="1" parent="0" />
        <mxCell id="MbpDUtjtTkJc41aYU_he-1" value="Étterem" style="ellipse;whiteSpace=wrap;html=1;strokeWidth=1;fillStyle=auto;perimeterSpacing=0;strokeColor=default;" vertex="1" parent="1">
          <mxGeometry x="1340" y="200" width="120" height="80" as="geometry" />
        </mxCell>
        <mxCell id="MbpDUtjtTkJc41aYU_he-10" value="EG55OI_Vendéglátás" style="ellipse;whiteSpace=wrap;html=1;" vertex="1" parent="1">
          <mxGeometry x="1340" y="30" width="120" height="80" as="geometry" />
        </mxCell>
        <mxCell id="MbpDUtjtTkJc41aYU_he-12" value="Név" style="ellipse;whiteSpace=wrap;html=1;" vertex="1" parent="1">
          <mxGeometry x="1140" y="320" width="120" height="70" as="geometry" />
        </mxCell>
        <mxCell id="MbpDUtjtTkJc41aYU_he-13" value="Cím" style="ellipse;whiteSpace=wrap;html=1;" vertex="1" parent="1">
          <mxGeometry x="1340" y="320" width="120" height="70" as="geometry" />
        </mxCell>
        <mxCell id="MbpDUtjtTkJc41aYU_he-14" value="Csillag" style="ellipse;whiteSpace=wrap;html=1;" vertex="1" parent="1">
          <mxGeometry x="1540" y="320" width="120" height="70" as="geometry" />
        </mxCell>
        <mxCell id="MbpDUtjtTkJc41aYU_he-15" value="" style="endArrow=none;html=1;rounded=0;exitX=0.5;exitY=0;exitDx=0;exitDy=0;entryX=0;entryY=1;entryDx=0;entryDy=0;" edge="1" parent="1" source="MbpDUtjtTkJc41aYU_he-12" target="MbpDUtjtTkJc41aYU_he-1">
          <mxGeometry width="50" height="50" relative="1" as="geometry">
            <mxPoint x="1350" y="430" as="sourcePoint" />
            <mxPoint x="1400" y="380" as="targetPoint" />
          </mxGeometry>
        </mxCell>
        <mxCell id="MbpDUtjtTkJc41aYU_he-16" value="" style="endArrow=none;html=1;rounded=0;entryX=0.5;entryY=0;entryDx=0;entryDy=0;exitX=0.5;exitY=1;exitDx=0;exitDy=0;" edge="1" parent="1" source="MbpDUtjtTkJc41aYU_he-1" target="MbpDUtjtTkJc41aYU_he-13">
          <mxGeometry width="50" height="50" relative="1" as="geometry">
            <mxPoint x="700" y="470" as="sourcePoint" />
            <mxPoint x="750" y="420" as="targetPoint" />
          </mxGeometry>
        </mxCell>
        <mxCell id="MbpDUtjtTkJc41aYU_he-17" value="" style="endArrow=none;html=1;rounded=0;entryX=0.5;entryY=0;entryDx=0;entryDy=0;exitX=1;exitY=1;exitDx=0;exitDy=0;" edge="1" parent="1" source="MbpDUtjtTkJc41aYU_he-1" target="MbpDUtjtTkJc41aYU_he-14">
          <mxGeometry width="50" height="50" relative="1" as="geometry">
            <mxPoint x="1350" y="430" as="sourcePoint" />
            <mxPoint x="1400" y="380" as="targetPoint" />
          </mxGeometry>
        </mxCell>
        <mxCell id="MbpDUtjtTkJc41aYU_he-18" value="Varos" style="ellipse;whiteSpace=wrap;html=1;" vertex="1" parent="1">
          <mxGeometry x="1220" y="440" width="100" height="70" as="geometry" />
        </mxCell>
        <mxCell id="MbpDUtjtTkJc41aYU_he-19" value="Utca" style="ellipse;whiteSpace=wrap;html=1;" vertex="1" parent="1">
          <mxGeometry x="1350" y="440" width="100" height="70" as="geometry" />
        </mxCell>
        <mxCell id="MbpDUtjtTkJc41aYU_he-20" value="Házszám" style="ellipse;whiteSpace=wrap;html=1;" vertex="1" parent="1">
          <mxGeometry x="1480" y="440" width="100" height="70" as="geometry" />
        </mxCell>
        <mxCell id="MbpDUtjtTkJc41aYU_he-21" value="" style="endArrow=none;html=1;rounded=0;exitX=0.5;exitY=0;exitDx=0;exitDy=0;entryX=0;entryY=1;entryDx=0;entryDy=0;" edge="1" parent="1" source="MbpDUtjtTkJc41aYU_he-18" target="MbpDUtjtTkJc41aYU_he-13">
          <mxGeometry width="50" height="50" relative="1" as="geometry">
            <mxPoint x="1370" y="430" as="sourcePoint" />
            <mxPoint x="1420" y="380" as="targetPoint" />
          </mxGeometry>
        </mxCell>
        <mxCell id="MbpDUtjtTkJc41aYU_he-22" value="" style="endArrow=none;html=1;rounded=0;exitX=0.5;exitY=0;exitDx=0;exitDy=0;entryX=0.5;entryY=1;entryDx=0;entryDy=0;" edge="1" parent="1" source="MbpDUtjtTkJc41aYU_he-19" target="MbpDUtjtTkJc41aYU_he-13">
          <mxGeometry width="50" height="50" relative="1" as="geometry">
            <mxPoint x="1370" y="430" as="sourcePoint" />
            <mxPoint x="1420" y="380" as="targetPoint" />
          </mxGeometry>
        </mxCell>
        <mxCell id="MbpDUtjtTkJc41aYU_he-23" value="" style="endArrow=none;html=1;rounded=0;exitX=0.5;exitY=0;exitDx=0;exitDy=0;entryX=1;entryY=1;entryDx=0;entryDy=0;" edge="1" parent="1" source="MbpDUtjtTkJc41aYU_he-20" target="MbpDUtjtTkJc41aYU_he-13">
          <mxGeometry width="50" height="50" relative="1" as="geometry">
            <mxPoint x="1370" y="430" as="sourcePoint" />
            <mxPoint x="1430" y="390" as="targetPoint" />
          </mxGeometry>
        </mxCell>
        <mxCell id="MbpDUtjtTkJc41aYU_he-24" value="&lt;u&gt;Ekód&lt;/u&gt;" style="rhombus;whiteSpace=wrap;html=1;" vertex="1" parent="1">
          <mxGeometry x="1060" y="240" width="80" height="80" as="geometry" />
        </mxCell>
        <mxCell id="MbpDUtjtTkJc41aYU_he-25" value="" style="endArrow=none;html=1;rounded=0;exitX=0.5;exitY=0;exitDx=0;exitDy=0;entryX=0;entryY=0.5;entryDx=0;entryDy=0;" edge="1" parent="1" source="MbpDUtjtTkJc41aYU_he-24" target="MbpDUtjtTkJc41aYU_he-1">
          <mxGeometry width="50" height="50" relative="1" as="geometry">
            <mxPoint x="1350" y="430" as="sourcePoint" />
            <mxPoint x="1400" y="380" as="targetPoint" />
          </mxGeometry>
        </mxCell>
        <mxCell id="MbpDUtjtTkJc41aYU_he-29" value="Főszakács" style="ellipse;whiteSpace=wrap;html=1;" vertex="1" parent="1">
          <mxGeometry x="740" y="200" width="120" height="80" as="geometry" />
        </mxCell>
        <mxCell id="MbpDUtjtTkJc41aYU_he-30" value="" style="endArrow=none;html=1;rounded=0;exitX=0.5;exitY=0;exitDx=0;exitDy=0;entryX=0.5;entryY=1;entryDx=0;entryDy=0;" edge="1" parent="1" source="MbpDUtjtTkJc41aYU_he-1" target="MbpDUtjtTkJc41aYU_he-10">
          <mxGeometry width="50" height="50" relative="1" as="geometry">
            <mxPoint x="390" y="430" as="sourcePoint" />
            <mxPoint x="440" y="380" as="targetPoint" />
          </mxGeometry>
        </mxCell>
        <mxCell id="MbpDUtjtTkJc41aYU_he-31" value="" style="endArrow=none;html=1;rounded=0;entryX=0.5;entryY=0;entryDx=0;entryDy=0;exitX=0;exitY=1;exitDx=0;exitDy=0;" edge="1" parent="1" source="MbpDUtjtTkJc41aYU_he-10" target="MbpDUtjtTkJc41aYU_he-29">
          <mxGeometry width="50" height="50" relative="1" as="geometry">
            <mxPoint x="390" y="430" as="sourcePoint" />
            <mxPoint x="440" y="380" as="targetPoint" />
          </mxGeometry>
        </mxCell>
        <mxCell id="MbpDUtjtTkJc41aYU_he-32" value="&lt;u&gt;FKód&lt;/u&gt;" style="rhombus;whiteSpace=wrap;html=1;" vertex="1" parent="1">
          <mxGeometry x="530" y="240" width="80" height="80" as="geometry" />
        </mxCell>
        <mxCell id="MbpDUtjtTkJc41aYU_he-33" value="" style="endArrow=none;html=1;rounded=0;entryX=0.5;entryY=0;entryDx=0;entryDy=0;exitX=0;exitY=0.5;exitDx=0;exitDy=0;" edge="1" parent="1" source="MbpDUtjtTkJc41aYU_he-29" target="MbpDUtjtTkJc41aYU_he-32">
          <mxGeometry width="50" height="50" relative="1" as="geometry">
            <mxPoint x="590" y="430" as="sourcePoint" />
            <mxPoint x="640" y="380" as="targetPoint" />
          </mxGeometry>
        </mxCell>
        <mxCell id="MbpDUtjtTkJc41aYU_he-34" value="Név" style="ellipse;whiteSpace=wrap;html=1;" vertex="1" parent="1">
          <mxGeometry x="600" y="320" width="120" height="70" as="geometry" />
        </mxCell>
        <mxCell id="MbpDUtjtTkJc41aYU_he-35" value="Életkor" style="ellipse;whiteSpace=wrap;html=1;" vertex="1" parent="1">
          <mxGeometry x="740" y="320" width="120" height="70" as="geometry" />
        </mxCell>
        <mxCell id="MbpDUtjtTkJc41aYU_he-36" value="Végzettség" style="ellipse;whiteSpace=wrap;html=1;fillColor=#dae8fc;strokeColor=#6c8ebf;" vertex="1" parent="1">
          <mxGeometry x="880" y="320" width="120" height="70" as="geometry" />
        </mxCell>
        <mxCell id="MbpDUtjtTkJc41aYU_he-37" value="" style="endArrow=none;html=1;rounded=0;exitX=0;exitY=1;exitDx=0;exitDy=0;entryX=0.5;entryY=0;entryDx=0;entryDy=0;" edge="1" parent="1" source="MbpDUtjtTkJc41aYU_he-29" target="MbpDUtjtTkJc41aYU_he-34">
          <mxGeometry width="50" height="50" relative="1" as="geometry">
            <mxPoint x="590" y="430" as="sourcePoint" />
            <mxPoint x="640" y="380" as="targetPoint" />
          </mxGeometry>
        </mxCell>
        <mxCell id="MbpDUtjtTkJc41aYU_he-38" value="" style="endArrow=none;html=1;rounded=0;entryX=0.5;entryY=1;entryDx=0;entryDy=0;exitX=0.5;exitY=0;exitDx=0;exitDy=0;" edge="1" parent="1" source="MbpDUtjtTkJc41aYU_he-35" target="MbpDUtjtTkJc41aYU_he-29">
          <mxGeometry width="50" height="50" relative="1" as="geometry">
            <mxPoint x="590" y="430" as="sourcePoint" />
            <mxPoint x="640" y="380" as="targetPoint" />
          </mxGeometry>
        </mxCell>
        <mxCell id="MbpDUtjtTkJc41aYU_he-39" value="" style="endArrow=none;html=1;rounded=0;entryX=1;entryY=1;entryDx=0;entryDy=0;exitX=0.5;exitY=0;exitDx=0;exitDy=0;" edge="1" parent="1" source="MbpDUtjtTkJc41aYU_he-36" target="MbpDUtjtTkJc41aYU_he-29">
          <mxGeometry width="50" height="50" relative="1" as="geometry">
            <mxPoint x="590" y="430" as="sourcePoint" />
            <mxPoint x="640" y="380" as="targetPoint" />
          </mxGeometry>
        </mxCell>
        <mxCell id="MbpDUtjtTkJc41aYU_he-40" value="Szakács" style="ellipse;whiteSpace=wrap;html=1;" vertex="1" parent="1">
          <mxGeometry x="190" y="200" width="120" height="80" as="geometry" />
        </mxCell>
        <mxCell id="MbpDUtjtTkJc41aYU_he-41" value="" style="endArrow=none;html=1;rounded=0;entryX=0;entryY=0.5;entryDx=0;entryDy=0;exitX=0.5;exitY=0;exitDx=0;exitDy=0;" edge="1" parent="1" source="MbpDUtjtTkJc41aYU_he-40" target="MbpDUtjtTkJc41aYU_he-10">
          <mxGeometry width="50" height="50" relative="1" as="geometry">
            <mxPoint x="670" y="430" as="sourcePoint" />
            <mxPoint x="720" y="380" as="targetPoint" />
          </mxGeometry>
        </mxCell>
        <mxCell id="MbpDUtjtTkJc41aYU_he-42" value="&lt;u&gt;SzKód&lt;/u&gt;" style="rhombus;whiteSpace=wrap;html=1;" vertex="1" parent="1">
          <mxGeometry x="-40" y="240" width="80" height="80" as="geometry" />
        </mxCell>
        <mxCell id="MbpDUtjtTkJc41aYU_he-43" value="" style="endArrow=none;html=1;rounded=0;entryX=0.5;entryY=0;entryDx=0;entryDy=0;exitX=0;exitY=0.5;exitDx=0;exitDy=0;" edge="1" parent="1" source="MbpDUtjtTkJc41aYU_he-40" target="MbpDUtjtTkJc41aYU_he-42">
          <mxGeometry width="50" height="50" relative="1" as="geometry">
            <mxPoint x="80" y="430" as="sourcePoint" />
            <mxPoint x="130" y="380" as="targetPoint" />
          </mxGeometry>
        </mxCell>
        <mxCell id="MbpDUtjtTkJc41aYU_he-44" value="Név" style="ellipse;whiteSpace=wrap;html=1;" vertex="1" parent="1">
          <mxGeometry x="50" y="320" width="120" height="70" as="geometry" />
        </mxCell>
        <mxCell id="MbpDUtjtTkJc41aYU_he-45" value="Részleg" style="ellipse;whiteSpace=wrap;html=1;" vertex="1" parent="1">
          <mxGeometry x="190" y="320" width="120" height="70" as="geometry" />
        </mxCell>
        <mxCell id="MbpDUtjtTkJc41aYU_he-46" value="Végzettség" style="ellipse;whiteSpace=wrap;html=1;fillColor=#dae8fc;strokeColor=#6c8ebf;" vertex="1" parent="1">
          <mxGeometry x="330" y="320" width="120" height="70" as="geometry" />
        </mxCell>
        <mxCell id="MbpDUtjtTkJc41aYU_he-48" value="" style="endArrow=none;html=1;rounded=0;exitX=0.5;exitY=0;exitDx=0;exitDy=0;entryX=0;entryY=1;entryDx=0;entryDy=0;" edge="1" parent="1" source="MbpDUtjtTkJc41aYU_he-44" target="MbpDUtjtTkJc41aYU_he-40">
          <mxGeometry width="50" height="50" relative="1" as="geometry">
            <mxPoint x="80" y="430" as="sourcePoint" />
            <mxPoint x="130" y="380" as="targetPoint" />
          </mxGeometry>
        </mxCell>
        <mxCell id="MbpDUtjtTkJc41aYU_he-49" value="" style="endArrow=none;html=1;rounded=0;exitX=0.5;exitY=0;exitDx=0;exitDy=0;entryX=0.5;entryY=1;entryDx=0;entryDy=0;" edge="1" parent="1" source="MbpDUtjtTkJc41aYU_he-45" target="MbpDUtjtTkJc41aYU_he-40">
          <mxGeometry width="50" height="50" relative="1" as="geometry">
            <mxPoint x="80" y="430" as="sourcePoint" />
            <mxPoint x="130" y="380" as="targetPoint" />
          </mxGeometry>
        </mxCell>
        <mxCell id="MbpDUtjtTkJc41aYU_he-50" value="" style="endArrow=none;html=1;rounded=0;entryX=1;entryY=1;entryDx=0;entryDy=0;exitX=0.5;exitY=0;exitDx=0;exitDy=0;" edge="1" parent="1" source="MbpDUtjtTkJc41aYU_he-46" target="MbpDUtjtTkJc41aYU_he-40">
          <mxGeometry width="50" height="50" relative="1" as="geometry">
            <mxPoint x="80" y="430" as="sourcePoint" />
            <mxPoint x="130" y="380" as="targetPoint" />
          </mxGeometry>
        </mxCell>
        <mxCell id="MbpDUtjtTkJc41aYU_he-51" value="Gyakornok" style="ellipse;whiteSpace=wrap;html=1;" vertex="1" parent="1">
          <mxGeometry x="1860" y="200" width="120" height="80" as="geometry" />
        </mxCell>
        <mxCell id="MbpDUtjtTkJc41aYU_he-52" value="" style="endArrow=none;html=1;rounded=0;entryX=1;entryY=1;entryDx=0;entryDy=0;exitX=0.5;exitY=0;exitDx=0;exitDy=0;" edge="1" parent="1" source="MbpDUtjtTkJc41aYU_he-51" target="MbpDUtjtTkJc41aYU_he-10">
          <mxGeometry width="50" height="50" relative="1" as="geometry">
            <mxPoint x="1190" y="430" as="sourcePoint" />
            <mxPoint x="1240" y="380" as="targetPoint" />
          </mxGeometry>
        </mxCell>
        <mxCell id="MbpDUtjtTkJc41aYU_he-53" value="&lt;u&gt;GyKód&lt;/u&gt;" style="rhombus;whiteSpace=wrap;html=1;" vertex="1" parent="1">
          <mxGeometry x="1660" y="240" width="80" height="80" as="geometry" />
        </mxCell>
        <mxCell id="MbpDUtjtTkJc41aYU_he-54" value="" style="endArrow=none;html=1;rounded=0;entryX=0.5;entryY=0;entryDx=0;entryDy=0;exitX=0;exitY=0.5;exitDx=0;exitDy=0;" edge="1" parent="1" source="MbpDUtjtTkJc41aYU_he-51">
          <mxGeometry width="50" height="50" relative="1" as="geometry">
            <mxPoint x="1290" y="430" as="sourcePoint" />
            <mxPoint x="1700" y="240" as="targetPoint" />
          </mxGeometry>
        </mxCell>
        <mxCell id="MbpDUtjtTkJc41aYU_he-55" value="Név" style="ellipse;whiteSpace=wrap;html=1;" vertex="1" parent="1">
          <mxGeometry x="1710" y="320" width="120" height="70" as="geometry" />
        </mxCell>
        <mxCell id="MbpDUtjtTkJc41aYU_he-56" value="Gyakorlat" style="ellipse;whiteSpace=wrap;html=1;" vertex="1" parent="1">
          <mxGeometry x="1860" y="320" width="120" height="70" as="geometry" />
        </mxCell>
        <mxCell id="MbpDUtjtTkJc41aYU_he-57" value="Muszak" style="ellipse;whiteSpace=wrap;html=1;fillColor=#dae8fc;strokeColor=#6c8ebf;" vertex="1" parent="1">
          <mxGeometry x="2020" y="320" width="120" height="70" as="geometry" />
        </mxCell>
        <mxCell id="MbpDUtjtTkJc41aYU_he-58" value="" style="endArrow=none;html=1;rounded=0;exitX=0.5;exitY=0;exitDx=0;exitDy=0;entryX=0.042;entryY=0.775;entryDx=0;entryDy=0;entryPerimeter=0;" edge="1" parent="1" source="MbpDUtjtTkJc41aYU_he-55" target="MbpDUtjtTkJc41aYU_he-51">
          <mxGeometry width="50" height="50" relative="1" as="geometry">
            <mxPoint x="1690" y="430" as="sourcePoint" />
            <mxPoint x="1740" y="380" as="targetPoint" />
          </mxGeometry>
        </mxCell>
        <mxCell id="MbpDUtjtTkJc41aYU_he-59" value="" style="endArrow=none;html=1;rounded=0;exitX=0.5;exitY=0;exitDx=0;exitDy=0;entryX=0.5;entryY=1;entryDx=0;entryDy=0;" edge="1" parent="1" source="MbpDUtjtTkJc41aYU_he-56" target="MbpDUtjtTkJc41aYU_he-51">
          <mxGeometry width="50" height="50" relative="1" as="geometry">
            <mxPoint x="1690" y="430" as="sourcePoint" />
            <mxPoint x="1740" y="380" as="targetPoint" />
          </mxGeometry>
        </mxCell>
        <mxCell id="MbpDUtjtTkJc41aYU_he-60" value="" style="endArrow=none;html=1;rounded=0;exitX=0.5;exitY=0;exitDx=0;exitDy=0;entryX=1;entryY=1;entryDx=0;entryDy=0;" edge="1" parent="1" source="MbpDUtjtTkJc41aYU_he-57" target="MbpDUtjtTkJc41aYU_he-51">
          <mxGeometry width="50" height="50" relative="1" as="geometry">
            <mxPoint x="1690" y="430" as="sourcePoint" />
            <mxPoint x="1740" y="380" as="targetPoint" />
          </mxGeometry>
        </mxCell>
        <mxCell id="MbpDUtjtTkJc41aYU_he-61" value="Kezdete" style="ellipse;whiteSpace=wrap;html=1;" vertex="1" parent="1">
          <mxGeometry x="1790" y="430" width="100" height="70" as="geometry" />
        </mxCell>
        <mxCell id="MbpDUtjtTkJc41aYU_he-62" value="Időtartama" style="ellipse;whiteSpace=wrap;html=1;" vertex="1" parent="1">
          <mxGeometry x="1960" y="430" width="100" height="70" as="geometry" />
        </mxCell>
        <mxCell id="MbpDUtjtTkJc41aYU_he-63" value="" style="endArrow=none;html=1;rounded=0;exitX=0.5;exitY=0;exitDx=0;exitDy=0;entryX=0;entryY=1;entryDx=0;entryDy=0;" edge="1" parent="1" source="MbpDUtjtTkJc41aYU_he-61" target="MbpDUtjtTkJc41aYU_he-56">
          <mxGeometry width="50" height="50" relative="1" as="geometry">
            <mxPoint x="2010" y="430" as="sourcePoint" />
            <mxPoint x="2060" y="380" as="targetPoint" />
          </mxGeometry>
        </mxCell>
        <mxCell id="MbpDUtjtTkJc41aYU_he-64" value="" style="endArrow=none;html=1;rounded=0;exitX=0.5;exitY=0;exitDx=0;exitDy=0;entryX=1;entryY=1;entryDx=0;entryDy=0;" edge="1" parent="1" source="MbpDUtjtTkJc41aYU_he-62" target="MbpDUtjtTkJc41aYU_he-56">
          <mxGeometry width="50" height="50" relative="1" as="geometry">
            <mxPoint x="2010" y="430" as="sourcePoint" />
            <mxPoint x="2060" y="380" as="targetPoint" />
          </mxGeometry>
        </mxCell>
        <mxCell id="MbpDUtjtTkJc41aYU_he-67" value="" style="endArrow=none;html=1;rounded=0;exitX=1;exitY=0.5;exitDx=0;exitDy=0;entryX=0.5;entryY=0;entryDx=0;entryDy=0;" edge="1" parent="1" source="MbpDUtjtTkJc41aYU_he-10" target="MbpDUtjtTkJc41aYU_he-163">
          <mxGeometry width="50" height="50" relative="1" as="geometry">
            <mxPoint x="1910" y="430" as="sourcePoint" />
            <mxPoint x="2461" y="195" as="targetPoint" />
          </mxGeometry>
        </mxCell>
        <mxCell id="MbpDUtjtTkJc41aYU_he-69" value="Összeg" style="ellipse;whiteSpace=wrap;html=1;" vertex="1" parent="1">
          <mxGeometry x="2510" y="320" width="120" height="80" as="geometry" />
        </mxCell>
        <mxCell id="MbpDUtjtTkJc41aYU_he-70" value="Étel" style="ellipse;whiteSpace=wrap;html=1;" vertex="1" parent="1">
          <mxGeometry x="2330" y="320" width="120" height="80" as="geometry" />
        </mxCell>
        <mxCell id="MbpDUtjtTkJc41aYU_he-71" value="Vendég" style="ellipse;whiteSpace=wrap;html=1;" vertex="1" parent="1">
          <mxGeometry x="2980" y="200" width="120" height="80" as="geometry" />
        </mxCell>
        <mxCell id="MbpDUtjtTkJc41aYU_he-73" value="Szakács" style="ellipse;whiteSpace=wrap;html=1;" vertex="1" parent="1">
          <mxGeometry x="197.5" y="205" width="105" height="70" as="geometry" />
        </mxCell>
        <mxCell id="MbpDUtjtTkJc41aYU_he-74" value="Étterem" style="ellipse;whiteSpace=wrap;html=1;" vertex="1" parent="1">
          <mxGeometry x="1345" y="205" width="110" height="70" as="geometry" />
        </mxCell>
        <mxCell id="MbpDUtjtTkJc41aYU_he-75" value="Főszakács" style="ellipse;whiteSpace=wrap;html=1;" vertex="1" parent="1">
          <mxGeometry x="745" y="205" width="110" height="70" as="geometry" />
        </mxCell>
        <mxCell id="MbpDUtjtTkJc41aYU_he-76" value="Gyakornok" style="ellipse;whiteSpace=wrap;html=1;" vertex="1" parent="1">
          <mxGeometry x="1865" y="205" width="110" height="70" as="geometry" />
        </mxCell>
        <mxCell id="MbpDUtjtTkJc41aYU_he-77" value="" style="endArrow=none;html=1;rounded=0;exitX=0.5;exitY=0;exitDx=0;exitDy=0;entryX=0;entryY=1;entryDx=0;entryDy=0;" edge="1" parent="1" source="MbpDUtjtTkJc41aYU_he-70" target="MbpDUtjtTkJc41aYU_he-163">
          <mxGeometry width="50" height="50" relative="1" as="geometry">
            <mxPoint x="2190" y="430" as="sourcePoint" />
            <mxPoint x="2511" y="235" as="targetPoint" />
          </mxGeometry>
        </mxCell>
        <mxCell id="MbpDUtjtTkJc41aYU_he-78" value="" style="endArrow=none;html=1;rounded=0;exitX=0.5;exitY=0;exitDx=0;exitDy=0;entryX=1;entryY=1;entryDx=0;entryDy=0;" edge="1" parent="1" source="MbpDUtjtTkJc41aYU_he-69" target="MbpDUtjtTkJc41aYU_he-164">
          <mxGeometry width="50" height="50" relative="1" as="geometry">
            <mxPoint x="2190" y="430" as="sourcePoint" />
            <mxPoint x="2560" y="280" as="targetPoint" />
          </mxGeometry>
        </mxCell>
        <mxCell id="MbpDUtjtTkJc41aYU_he-83" value="&lt;u&gt;VKód&lt;/u&gt;" style="rhombus;whiteSpace=wrap;html=1;" vertex="1" parent="1">
          <mxGeometry x="3331" y="240" width="80" height="80" as="geometry" />
        </mxCell>
        <mxCell id="MbpDUtjtTkJc41aYU_he-84" value="" style="endArrow=none;html=1;rounded=0;exitX=1;exitY=0.5;exitDx=0;exitDy=0;entryX=0.5;entryY=0;entryDx=0;entryDy=0;" edge="1" parent="1" source="MbpDUtjtTkJc41aYU_he-71" target="MbpDUtjtTkJc41aYU_he-83">
          <mxGeometry width="50" height="50" relative="1" as="geometry">
            <mxPoint x="2820" y="310" as="sourcePoint" />
            <mxPoint x="2870" y="260" as="targetPoint" />
          </mxGeometry>
        </mxCell>
        <mxCell id="MbpDUtjtTkJc41aYU_he-85" value="Életkor" style="ellipse;whiteSpace=wrap;html=1;" vertex="1" parent="1">
          <mxGeometry x="3200" y="320" width="100" height="70" as="geometry" />
        </mxCell>
        <mxCell id="MbpDUtjtTkJc41aYU_he-86" value="Név" style="ellipse;whiteSpace=wrap;html=1;" vertex="1" parent="1">
          <mxGeometry x="2760" y="320" width="100" height="70" as="geometry" />
        </mxCell>
        <mxCell id="MbpDUtjtTkJc41aYU_he-87" value="Cím" style="ellipse;whiteSpace=wrap;html=1;" vertex="1" parent="1">
          <mxGeometry x="2985" y="320" width="110" height="70" as="geometry" />
        </mxCell>
        <mxCell id="MbpDUtjtTkJc41aYU_he-88" value="Varos" style="ellipse;whiteSpace=wrap;html=1;" vertex="1" parent="1">
          <mxGeometry x="2860" y="440" width="100" height="70" as="geometry" />
        </mxCell>
        <mxCell id="MbpDUtjtTkJc41aYU_he-89" value="Utca" style="ellipse;whiteSpace=wrap;html=1;" vertex="1" parent="1">
          <mxGeometry x="2990" y="440" width="100" height="70" as="geometry" />
        </mxCell>
        <mxCell id="MbpDUtjtTkJc41aYU_he-90" value="Házszám" style="ellipse;whiteSpace=wrap;html=1;" vertex="1" parent="1">
          <mxGeometry x="3120" y="440" width="100" height="70" as="geometry" />
        </mxCell>
        <mxCell id="MbpDUtjtTkJc41aYU_he-91" value="" style="endArrow=none;html=1;rounded=0;exitX=0.5;exitY=0;exitDx=0;exitDy=0;entryX=0;entryY=1;entryDx=0;entryDy=0;" edge="1" parent="1" source="MbpDUtjtTkJc41aYU_he-88" target="MbpDUtjtTkJc41aYU_he-87">
          <mxGeometry width="50" height="50" relative="1" as="geometry">
            <mxPoint x="3030" y="430" as="sourcePoint" />
            <mxPoint x="3080" y="380" as="targetPoint" />
          </mxGeometry>
        </mxCell>
        <mxCell id="MbpDUtjtTkJc41aYU_he-92" value="" style="endArrow=none;html=1;rounded=0;exitX=0.5;exitY=0;exitDx=0;exitDy=0;entryX=0.5;entryY=1;entryDx=0;entryDy=0;" edge="1" parent="1" source="MbpDUtjtTkJc41aYU_he-89" target="MbpDUtjtTkJc41aYU_he-87">
          <mxGeometry width="50" height="50" relative="1" as="geometry">
            <mxPoint x="3030" y="430" as="sourcePoint" />
            <mxPoint x="3080" y="380" as="targetPoint" />
          </mxGeometry>
        </mxCell>
        <mxCell id="MbpDUtjtTkJc41aYU_he-93" value="" style="endArrow=none;html=1;rounded=0;exitX=0.5;exitY=0;exitDx=0;exitDy=0;entryX=1;entryY=1;entryDx=0;entryDy=0;" edge="1" parent="1" source="MbpDUtjtTkJc41aYU_he-90" target="MbpDUtjtTkJc41aYU_he-87">
          <mxGeometry width="50" height="50" relative="1" as="geometry">
            <mxPoint x="3030" y="430" as="sourcePoint" />
            <mxPoint x="3090" y="390" as="targetPoint" />
          </mxGeometry>
        </mxCell>
        <mxCell id="MbpDUtjtTkJc41aYU_he-94" value="" style="endArrow=none;html=1;rounded=0;exitX=0.5;exitY=0;exitDx=0;exitDy=0;entryX=0;entryY=1;entryDx=0;entryDy=0;" edge="1" parent="1" source="MbpDUtjtTkJc41aYU_he-86" target="MbpDUtjtTkJc41aYU_he-71">
          <mxGeometry width="50" height="50" relative="1" as="geometry">
            <mxPoint x="2850" y="310" as="sourcePoint" />
            <mxPoint x="2900" y="260" as="targetPoint" />
          </mxGeometry>
        </mxCell>
        <mxCell id="MbpDUtjtTkJc41aYU_he-95" value="" style="endArrow=none;html=1;rounded=0;exitX=0.5;exitY=0;exitDx=0;exitDy=0;entryX=0.5;entryY=1;entryDx=0;entryDy=0;" edge="1" parent="1" source="MbpDUtjtTkJc41aYU_he-87" target="MbpDUtjtTkJc41aYU_he-71">
          <mxGeometry width="50" height="50" relative="1" as="geometry">
            <mxPoint x="2850" y="310" as="sourcePoint" />
            <mxPoint x="2900" y="260" as="targetPoint" />
          </mxGeometry>
        </mxCell>
        <mxCell id="MbpDUtjtTkJc41aYU_he-96" value="" style="endArrow=none;html=1;rounded=0;exitX=0.5;exitY=0;exitDx=0;exitDy=0;entryX=1;entryY=1;entryDx=0;entryDy=0;" edge="1" parent="1" source="MbpDUtjtTkJc41aYU_he-85" target="MbpDUtjtTkJc41aYU_he-71">
          <mxGeometry width="50" height="50" relative="1" as="geometry">
            <mxPoint x="2850" y="310" as="sourcePoint" />
            <mxPoint x="2900" y="260" as="targetPoint" />
          </mxGeometry>
        </mxCell>
        <mxCell id="MbpDUtjtTkJc41aYU_he-98" value="Vendég" style="ellipse;whiteSpace=wrap;html=1;" vertex="1" parent="1">
          <mxGeometry x="2985" y="205" width="110" height="70" as="geometry" />
        </mxCell>
        <mxCell id="MbpDUtjtTkJc41aYU_he-99" value="E - F" style="rhombus;whiteSpace=wrap;html=1;" vertex="1" parent="1">
          <mxGeometry x="950" y="240" width="80" height="80" as="geometry" />
        </mxCell>
        <mxCell id="MbpDUtjtTkJc41aYU_he-100" value="" style="endArrow=none;html=1;rounded=0;exitX=1;exitY=0.5;exitDx=0;exitDy=0;entryX=0.5;entryY=0;entryDx=0;entryDy=0;" edge="1" parent="1" source="MbpDUtjtTkJc41aYU_he-29" target="MbpDUtjtTkJc41aYU_he-99">
          <mxGeometry width="50" height="50" relative="1" as="geometry">
            <mxPoint x="910" y="430" as="sourcePoint" />
            <mxPoint x="960" y="380" as="targetPoint" />
          </mxGeometry>
        </mxCell>
        <mxCell id="MbpDUtjtTkJc41aYU_he-102" value="" style="rounded=0;whiteSpace=wrap;html=1;" vertex="1" parent="1">
          <mxGeometry x="-15" y="360" width="30" height="60" as="geometry" />
        </mxCell>
        <mxCell id="MbpDUtjtTkJc41aYU_he-103" value="" style="endArrow=none;html=1;rounded=0;exitX=0.5;exitY=0;exitDx=0;exitDy=0;entryX=0.5;entryY=1;entryDx=0;entryDy=0;" edge="1" parent="1" source="MbpDUtjtTkJc41aYU_he-102" target="MbpDUtjtTkJc41aYU_he-42">
          <mxGeometry width="50" height="50" relative="1" as="geometry">
            <mxPoint x="320" y="330" as="sourcePoint" />
            <mxPoint x="370" y="280" as="targetPoint" />
          </mxGeometry>
        </mxCell>
        <mxCell id="MbpDUtjtTkJc41aYU_he-104" value="" style="rounded=0;whiteSpace=wrap;html=1;" vertex="1" parent="1">
          <mxGeometry x="90" y="430" width="30" height="60" as="geometry" />
        </mxCell>
        <mxCell id="MbpDUtjtTkJc41aYU_he-105" value="" style="endArrow=none;html=1;rounded=0;exitX=0.5;exitY=0;exitDx=0;exitDy=0;entryX=0.5;entryY=1;entryDx=0;entryDy=0;" edge="1" parent="1" source="MbpDUtjtTkJc41aYU_he-104">
          <mxGeometry width="50" height="50" relative="1" as="geometry">
            <mxPoint x="425" y="400" as="sourcePoint" />
            <mxPoint x="105" y="390" as="targetPoint" />
          </mxGeometry>
        </mxCell>
        <mxCell id="MbpDUtjtTkJc41aYU_he-106" value="" style="rounded=0;whiteSpace=wrap;html=1;" vertex="1" parent="1">
          <mxGeometry x="235" y="430" width="30" height="60" as="geometry" />
        </mxCell>
        <mxCell id="MbpDUtjtTkJc41aYU_he-107" value="" style="endArrow=none;html=1;rounded=0;exitX=0.5;exitY=0;exitDx=0;exitDy=0;entryX=0.5;entryY=1;entryDx=0;entryDy=0;" edge="1" parent="1" source="MbpDUtjtTkJc41aYU_he-106">
          <mxGeometry width="50" height="50" relative="1" as="geometry">
            <mxPoint x="570" y="400" as="sourcePoint" />
            <mxPoint x="250" y="390" as="targetPoint" />
          </mxGeometry>
        </mxCell>
        <mxCell id="MbpDUtjtTkJc41aYU_he-108" value="" style="rounded=0;whiteSpace=wrap;html=1;" vertex="1" parent="1">
          <mxGeometry x="375" y="430" width="30" height="60" as="geometry" />
        </mxCell>
        <mxCell id="MbpDUtjtTkJc41aYU_he-109" value="" style="endArrow=none;html=1;rounded=0;exitX=0.5;exitY=0;exitDx=0;exitDy=0;entryX=0.5;entryY=1;entryDx=0;entryDy=0;" edge="1" parent="1" source="MbpDUtjtTkJc41aYU_he-108">
          <mxGeometry width="50" height="50" relative="1" as="geometry">
            <mxPoint x="710" y="400" as="sourcePoint" />
            <mxPoint x="390" y="390" as="targetPoint" />
          </mxGeometry>
        </mxCell>
        <mxCell id="MbpDUtjtTkJc41aYU_he-110" value="" style="rounded=0;whiteSpace=wrap;html=1;" vertex="1" parent="1">
          <mxGeometry x="645" y="430" width="30" height="60" as="geometry" />
        </mxCell>
        <mxCell id="MbpDUtjtTkJc41aYU_he-111" value="" style="endArrow=none;html=1;rounded=0;exitX=0.5;exitY=0;exitDx=0;exitDy=0;entryX=0.5;entryY=1;entryDx=0;entryDy=0;" edge="1" parent="1" source="MbpDUtjtTkJc41aYU_he-110">
          <mxGeometry width="50" height="50" relative="1" as="geometry">
            <mxPoint x="980" y="400" as="sourcePoint" />
            <mxPoint x="660" y="390" as="targetPoint" />
          </mxGeometry>
        </mxCell>
        <mxCell id="MbpDUtjtTkJc41aYU_he-112" value="" style="rounded=0;whiteSpace=wrap;html=1;" vertex="1" parent="1">
          <mxGeometry x="785" y="430" width="30" height="60" as="geometry" />
        </mxCell>
        <mxCell id="MbpDUtjtTkJc41aYU_he-113" value="" style="endArrow=none;html=1;rounded=0;exitX=0.5;exitY=0;exitDx=0;exitDy=0;entryX=0.5;entryY=1;entryDx=0;entryDy=0;" edge="1" parent="1" source="MbpDUtjtTkJc41aYU_he-112">
          <mxGeometry width="50" height="50" relative="1" as="geometry">
            <mxPoint x="1120" y="400" as="sourcePoint" />
            <mxPoint x="800" y="390" as="targetPoint" />
          </mxGeometry>
        </mxCell>
        <mxCell id="MbpDUtjtTkJc41aYU_he-114" value="" style="rounded=0;whiteSpace=wrap;html=1;" vertex="1" parent="1">
          <mxGeometry x="925" y="430" width="30" height="60" as="geometry" />
        </mxCell>
        <mxCell id="MbpDUtjtTkJc41aYU_he-115" value="" style="endArrow=none;html=1;rounded=0;exitX=0.5;exitY=0;exitDx=0;exitDy=0;entryX=0.5;entryY=1;entryDx=0;entryDy=0;" edge="1" parent="1" source="MbpDUtjtTkJc41aYU_he-114">
          <mxGeometry width="50" height="50" relative="1" as="geometry">
            <mxPoint x="1260" y="400" as="sourcePoint" />
            <mxPoint x="940" y="390" as="targetPoint" />
          </mxGeometry>
        </mxCell>
        <mxCell id="MbpDUtjtTkJc41aYU_he-116" value="" style="rounded=0;whiteSpace=wrap;html=1;" vertex="1" parent="1">
          <mxGeometry x="1255" y="550" width="30" height="60" as="geometry" />
        </mxCell>
        <mxCell id="MbpDUtjtTkJc41aYU_he-117" value="" style="endArrow=none;html=1;rounded=0;exitX=0.5;exitY=0;exitDx=0;exitDy=0;entryX=0.5;entryY=1;entryDx=0;entryDy=0;" edge="1" parent="1" source="MbpDUtjtTkJc41aYU_he-116">
          <mxGeometry width="50" height="50" relative="1" as="geometry">
            <mxPoint x="1590" y="520" as="sourcePoint" />
            <mxPoint x="1270" y="510" as="targetPoint" />
          </mxGeometry>
        </mxCell>
        <mxCell id="MbpDUtjtTkJc41aYU_he-118" value="" style="rounded=0;whiteSpace=wrap;html=1;" vertex="1" parent="1">
          <mxGeometry x="1385" y="550" width="30" height="60" as="geometry" />
        </mxCell>
        <mxCell id="MbpDUtjtTkJc41aYU_he-119" value="" style="endArrow=none;html=1;rounded=0;exitX=0.5;exitY=0;exitDx=0;exitDy=0;entryX=0.5;entryY=1;entryDx=0;entryDy=0;" edge="1" parent="1" source="MbpDUtjtTkJc41aYU_he-118">
          <mxGeometry width="50" height="50" relative="1" as="geometry">
            <mxPoint x="1720" y="520" as="sourcePoint" />
            <mxPoint x="1400" y="510" as="targetPoint" />
          </mxGeometry>
        </mxCell>
        <mxCell id="MbpDUtjtTkJc41aYU_he-120" value="" style="rounded=0;whiteSpace=wrap;html=1;" vertex="1" parent="1">
          <mxGeometry x="1515" y="550" width="30" height="60" as="geometry" />
        </mxCell>
        <mxCell id="MbpDUtjtTkJc41aYU_he-121" value="" style="endArrow=none;html=1;rounded=0;exitX=0.5;exitY=0;exitDx=0;exitDy=0;entryX=0.5;entryY=1;entryDx=0;entryDy=0;" edge="1" parent="1" source="MbpDUtjtTkJc41aYU_he-120">
          <mxGeometry width="50" height="50" relative="1" as="geometry">
            <mxPoint x="1850" y="520" as="sourcePoint" />
            <mxPoint x="1530" y="510" as="targetPoint" />
          </mxGeometry>
        </mxCell>
        <mxCell id="MbpDUtjtTkJc41aYU_he-122" value="" style="rounded=0;whiteSpace=wrap;html=1;" vertex="1" parent="1">
          <mxGeometry x="1585" y="430" width="30" height="60" as="geometry" />
        </mxCell>
        <mxCell id="MbpDUtjtTkJc41aYU_he-123" value="" style="endArrow=none;html=1;rounded=0;exitX=0.5;exitY=0;exitDx=0;exitDy=0;entryX=0.5;entryY=1;entryDx=0;entryDy=0;" edge="1" parent="1">
          <mxGeometry width="50" height="50" relative="1" as="geometry">
            <mxPoint x="1599.5" y="430" as="sourcePoint" />
            <mxPoint x="1599.5" y="390" as="targetPoint" />
          </mxGeometry>
        </mxCell>
        <mxCell id="MbpDUtjtTkJc41aYU_he-124" value="" style="rounded=0;whiteSpace=wrap;html=1;" vertex="1" parent="1">
          <mxGeometry x="1185" y="430" width="30" height="60" as="geometry" />
        </mxCell>
        <mxCell id="MbpDUtjtTkJc41aYU_he-125" value="" style="endArrow=none;html=1;rounded=0;exitX=0.5;exitY=0;exitDx=0;exitDy=0;entryX=0.5;entryY=1;entryDx=0;entryDy=0;" edge="1" parent="1" source="MbpDUtjtTkJc41aYU_he-124">
          <mxGeometry width="50" height="50" relative="1" as="geometry">
            <mxPoint x="1520" y="400" as="sourcePoint" />
            <mxPoint x="1200" y="390" as="targetPoint" />
          </mxGeometry>
        </mxCell>
        <mxCell id="MbpDUtjtTkJc41aYU_he-126" value="" style="rounded=0;whiteSpace=wrap;html=1;" vertex="1" parent="1">
          <mxGeometry x="1825" y="540" width="30" height="60" as="geometry" />
        </mxCell>
        <mxCell id="MbpDUtjtTkJc41aYU_he-127" value="" style="endArrow=none;html=1;rounded=0;exitX=0.5;exitY=0;exitDx=0;exitDy=0;entryX=0.5;entryY=1;entryDx=0;entryDy=0;" edge="1" parent="1" source="MbpDUtjtTkJc41aYU_he-126">
          <mxGeometry width="50" height="50" relative="1" as="geometry">
            <mxPoint x="2160" y="510" as="sourcePoint" />
            <mxPoint x="1840" y="500" as="targetPoint" />
          </mxGeometry>
        </mxCell>
        <mxCell id="MbpDUtjtTkJc41aYU_he-128" value="" style="rounded=0;whiteSpace=wrap;html=1;" vertex="1" parent="1">
          <mxGeometry x="1995" y="540" width="30" height="60" as="geometry" />
        </mxCell>
        <mxCell id="MbpDUtjtTkJc41aYU_he-129" value="" style="endArrow=none;html=1;rounded=0;exitX=0.5;exitY=0;exitDx=0;exitDy=0;entryX=0.5;entryY=1;entryDx=0;entryDy=0;" edge="1" parent="1" source="MbpDUtjtTkJc41aYU_he-128">
          <mxGeometry width="50" height="50" relative="1" as="geometry">
            <mxPoint x="2330" y="510" as="sourcePoint" />
            <mxPoint x="2010" y="500" as="targetPoint" />
          </mxGeometry>
        </mxCell>
        <mxCell id="MbpDUtjtTkJc41aYU_he-130" value="" style="rounded=0;whiteSpace=wrap;html=1;" vertex="1" parent="1">
          <mxGeometry x="1755" y="430" width="30" height="60" as="geometry" />
        </mxCell>
        <mxCell id="MbpDUtjtTkJc41aYU_he-131" value="" style="endArrow=none;html=1;rounded=0;exitX=0.5;exitY=0;exitDx=0;exitDy=0;entryX=0.5;entryY=1;entryDx=0;entryDy=0;" edge="1" parent="1" source="MbpDUtjtTkJc41aYU_he-130">
          <mxGeometry width="50" height="50" relative="1" as="geometry">
            <mxPoint x="2090" y="400" as="sourcePoint" />
            <mxPoint x="1770" y="390" as="targetPoint" />
          </mxGeometry>
        </mxCell>
        <mxCell id="MbpDUtjtTkJc41aYU_he-132" value="" style="rounded=0;whiteSpace=wrap;html=1;" vertex="1" parent="1">
          <mxGeometry x="2068" y="430" width="30" height="60" as="geometry" />
        </mxCell>
        <mxCell id="MbpDUtjtTkJc41aYU_he-133" value="" style="endArrow=none;html=1;rounded=0;exitX=0.5;exitY=0;exitDx=0;exitDy=0;entryX=0.5;entryY=1;entryDx=0;entryDy=0;" edge="1" parent="1" source="MbpDUtjtTkJc41aYU_he-132">
          <mxGeometry width="50" height="50" relative="1" as="geometry">
            <mxPoint x="2403" y="400" as="sourcePoint" />
            <mxPoint x="2083" y="390" as="targetPoint" />
          </mxGeometry>
        </mxCell>
        <mxCell id="MbpDUtjtTkJc41aYU_he-134" value="" style="rounded=0;whiteSpace=wrap;html=1;" vertex="1" parent="1">
          <mxGeometry x="2375" y="440" width="30" height="60" as="geometry" />
        </mxCell>
        <mxCell id="MbpDUtjtTkJc41aYU_he-135" value="" style="endArrow=none;html=1;rounded=0;exitX=0.5;exitY=0;exitDx=0;exitDy=0;entryX=0.5;entryY=1;entryDx=0;entryDy=0;" edge="1" parent="1" source="MbpDUtjtTkJc41aYU_he-134">
          <mxGeometry width="50" height="50" relative="1" as="geometry">
            <mxPoint x="2710" y="410" as="sourcePoint" />
            <mxPoint x="2390" y="400" as="targetPoint" />
          </mxGeometry>
        </mxCell>
        <mxCell id="MbpDUtjtTkJc41aYU_he-136" value="" style="rounded=0;whiteSpace=wrap;html=1;" vertex="1" parent="1">
          <mxGeometry x="2555" y="440" width="30" height="60" as="geometry" />
        </mxCell>
        <mxCell id="MbpDUtjtTkJc41aYU_he-138" value="" style="rounded=0;whiteSpace=wrap;html=1;" vertex="1" parent="1">
          <mxGeometry x="2795" y="430" width="30" height="60" as="geometry" />
        </mxCell>
        <mxCell id="MbpDUtjtTkJc41aYU_he-139" value="" style="endArrow=none;html=1;rounded=0;exitX=0.5;exitY=0;exitDx=0;exitDy=0;entryX=0.5;entryY=1;entryDx=0;entryDy=0;" edge="1" parent="1" source="MbpDUtjtTkJc41aYU_he-138">
          <mxGeometry width="50" height="50" relative="1" as="geometry">
            <mxPoint x="3130" y="400" as="sourcePoint" />
            <mxPoint x="2810" y="390" as="targetPoint" />
          </mxGeometry>
        </mxCell>
        <mxCell id="MbpDUtjtTkJc41aYU_he-140" value="" style="rounded=0;whiteSpace=wrap;html=1;" vertex="1" parent="1">
          <mxGeometry x="2895" y="550" width="30" height="60" as="geometry" />
        </mxCell>
        <mxCell id="MbpDUtjtTkJc41aYU_he-141" value="" style="endArrow=none;html=1;rounded=0;exitX=0.5;exitY=0;exitDx=0;exitDy=0;entryX=0.5;entryY=1;entryDx=0;entryDy=0;" edge="1" parent="1" source="MbpDUtjtTkJc41aYU_he-140">
          <mxGeometry width="50" height="50" relative="1" as="geometry">
            <mxPoint x="3230" y="520" as="sourcePoint" />
            <mxPoint x="2910" y="510" as="targetPoint" />
          </mxGeometry>
        </mxCell>
        <mxCell id="MbpDUtjtTkJc41aYU_he-142" value="" style="rounded=0;whiteSpace=wrap;html=1;" vertex="1" parent="1">
          <mxGeometry x="3025" y="550" width="30" height="60" as="geometry" />
        </mxCell>
        <mxCell id="MbpDUtjtTkJc41aYU_he-143" value="" style="endArrow=none;html=1;rounded=0;exitX=0.5;exitY=0;exitDx=0;exitDy=0;entryX=0.5;entryY=1;entryDx=0;entryDy=0;" edge="1" parent="1" source="MbpDUtjtTkJc41aYU_he-142">
          <mxGeometry width="50" height="50" relative="1" as="geometry">
            <mxPoint x="3360" y="520" as="sourcePoint" />
            <mxPoint x="3040" y="510" as="targetPoint" />
          </mxGeometry>
        </mxCell>
        <mxCell id="MbpDUtjtTkJc41aYU_he-144" value="" style="rounded=0;whiteSpace=wrap;html=1;" vertex="1" parent="1">
          <mxGeometry x="3155" y="550" width="30" height="60" as="geometry" />
        </mxCell>
        <mxCell id="MbpDUtjtTkJc41aYU_he-145" value="" style="endArrow=none;html=1;rounded=0;exitX=0.5;exitY=0;exitDx=0;exitDy=0;entryX=0.5;entryY=1;entryDx=0;entryDy=0;" edge="1" parent="1" source="MbpDUtjtTkJc41aYU_he-144">
          <mxGeometry width="50" height="50" relative="1" as="geometry">
            <mxPoint x="3490" y="520" as="sourcePoint" />
            <mxPoint x="3170" y="510" as="targetPoint" />
          </mxGeometry>
        </mxCell>
        <mxCell id="MbpDUtjtTkJc41aYU_he-149" value="" style="rounded=0;whiteSpace=wrap;html=1;" vertex="1" parent="1">
          <mxGeometry x="3235" y="430" width="30" height="60" as="geometry" />
        </mxCell>
        <mxCell id="MbpDUtjtTkJc41aYU_he-150" value="" style="endArrow=none;html=1;rounded=0;exitX=0.5;exitY=0;exitDx=0;exitDy=0;entryX=0.5;entryY=1;entryDx=0;entryDy=0;" edge="1" parent="1" source="MbpDUtjtTkJc41aYU_he-149" target="MbpDUtjtTkJc41aYU_he-85">
          <mxGeometry width="50" height="50" relative="1" as="geometry">
            <mxPoint x="3570" y="410" as="sourcePoint" />
            <mxPoint x="3250" y="400" as="targetPoint" />
          </mxGeometry>
        </mxCell>
        <mxCell id="MbpDUtjtTkJc41aYU_he-152" value="E - Sz" style="rhombus;whiteSpace=wrap;html=1;" vertex="1" parent="1">
          <mxGeometry x="440" y="240" width="80" height="80" as="geometry" />
        </mxCell>
        <mxCell id="MbpDUtjtTkJc41aYU_he-153" value="" style="endArrow=none;html=1;rounded=0;exitX=1;exitY=0.5;exitDx=0;exitDy=0;entryX=0.5;entryY=0;entryDx=0;entryDy=0;" edge="1" parent="1" source="MbpDUtjtTkJc41aYU_he-40" target="MbpDUtjtTkJc41aYU_he-152">
          <mxGeometry width="50" height="50" relative="1" as="geometry">
            <mxPoint x="410" y="430" as="sourcePoint" />
            <mxPoint x="460" y="380" as="targetPoint" />
          </mxGeometry>
        </mxCell>
        <mxCell id="MbpDUtjtTkJc41aYU_he-154" value="" style="endArrow=none;dashed=1;html=1;dashPattern=1 3;strokeWidth=2;rounded=0;exitX=0.5;exitY=1;exitDx=0;exitDy=0;entryX=0;entryY=1;entryDx=0;entryDy=0;" edge="1" parent="1" source="MbpDUtjtTkJc41aYU_he-152" target="MbpDUtjtTkJc41aYU_he-24">
          <mxGeometry width="50" height="50" relative="1" as="geometry">
            <mxPoint x="850" y="430" as="sourcePoint" />
            <mxPoint x="900" y="380" as="targetPoint" />
            <Array as="points">
              <mxPoint x="480" y="600" />
              <mxPoint x="1080" y="600" />
            </Array>
          </mxGeometry>
        </mxCell>
        <mxCell id="MbpDUtjtTkJc41aYU_he-155" value="" style="endArrow=none;dashed=1;html=1;dashPattern=1 3;strokeWidth=2;rounded=0;exitX=1;exitY=0.5;exitDx=0;exitDy=0;entryX=0;entryY=0.5;entryDx=0;entryDy=0;" edge="1" parent="1" source="MbpDUtjtTkJc41aYU_he-99" target="MbpDUtjtTkJc41aYU_he-24">
          <mxGeometry width="50" height="50" relative="1" as="geometry">
            <mxPoint x="850" y="430" as="sourcePoint" />
            <mxPoint x="900" y="380" as="targetPoint" />
          </mxGeometry>
        </mxCell>
        <mxCell id="MbpDUtjtTkJc41aYU_he-157" value="E - Gy" style="rhombus;whiteSpace=wrap;html=1;" vertex="1" parent="1">
          <mxGeometry x="2120" y="240" width="80" height="80" as="geometry" />
        </mxCell>
        <mxCell id="MbpDUtjtTkJc41aYU_he-158" value="" style="endArrow=none;html=1;rounded=0;exitX=1;exitY=0.5;exitDx=0;exitDy=0;entryX=0.5;entryY=0;entryDx=0;entryDy=0;" edge="1" parent="1" source="MbpDUtjtTkJc41aYU_he-51" target="MbpDUtjtTkJc41aYU_he-157">
          <mxGeometry width="50" height="50" relative="1" as="geometry">
            <mxPoint x="1640" y="430" as="sourcePoint" />
            <mxPoint x="1690" y="380" as="targetPoint" />
          </mxGeometry>
        </mxCell>
        <mxCell id="MbpDUtjtTkJc41aYU_he-159" value="" style="endArrow=none;dashed=1;html=1;dashPattern=1 3;strokeWidth=2;rounded=0;entryX=0.5;entryY=1;entryDx=0;entryDy=0;exitX=1;exitY=1;exitDx=0;exitDy=0;" edge="1" parent="1" source="MbpDUtjtTkJc41aYU_he-24" target="MbpDUtjtTkJc41aYU_he-157">
          <mxGeometry width="50" height="50" relative="1" as="geometry">
            <mxPoint x="1640" y="430" as="sourcePoint" />
            <mxPoint x="1690" y="380" as="targetPoint" />
            <Array as="points">
              <mxPoint x="1120" y="640" />
              <mxPoint x="2160" y="640" />
            </Array>
          </mxGeometry>
        </mxCell>
        <mxCell id="MbpDUtjtTkJc41aYU_he-163" value="Rendelés" style="ellipse;whiteSpace=wrap;html=1;" vertex="1" parent="1">
          <mxGeometry x="2430" y="200" width="120" height="80" as="geometry" />
        </mxCell>
        <mxCell id="MbpDUtjtTkJc41aYU_he-164" value="Rendelés" style="ellipse;whiteSpace=wrap;html=1;" vertex="1" parent="1">
          <mxGeometry x="2435" y="205" width="110" height="70" as="geometry" />
        </mxCell>
        <mxCell id="MbpDUtjtTkJc41aYU_he-165" value="" style="endArrow=none;html=1;rounded=0;exitX=1;exitY=0;exitDx=0;exitDy=0;entryX=0.5;entryY=0;entryDx=0;entryDy=0;" edge="1" parent="1" source="MbpDUtjtTkJc41aYU_he-10" target="MbpDUtjtTkJc41aYU_he-71">
          <mxGeometry width="50" height="50" relative="1" as="geometry">
            <mxPoint x="1820" y="130" as="sourcePoint" />
            <mxPoint x="1870" y="80" as="targetPoint" />
          </mxGeometry>
        </mxCell>
        <mxCell id="MbpDUtjtTkJc41aYU_he-167" value="" style="endArrow=none;html=1;rounded=0;exitX=0.5;exitY=1;exitDx=0;exitDy=0;entryX=0.5;entryY=0;entryDx=0;entryDy=0;" edge="1" parent="1" source="MbpDUtjtTkJc41aYU_he-69" target="MbpDUtjtTkJc41aYU_he-136">
          <mxGeometry width="50" height="50" relative="1" as="geometry">
            <mxPoint x="2560" y="330" as="sourcePoint" />
            <mxPoint x="2610" y="280" as="targetPoint" />
          </mxGeometry>
        </mxCell>
        <mxCell id="MbpDUtjtTkJc41aYU_he-168" value="E - R" style="rhombus;whiteSpace=wrap;html=1;" vertex="1" parent="1">
          <mxGeometry x="2280" y="240" width="80" height="80" as="geometry" />
        </mxCell>
        <mxCell id="MbpDUtjtTkJc41aYU_he-169" value="R - V" style="rhombus;whiteSpace=wrap;html=1;" vertex="1" parent="1">
          <mxGeometry x="2640" y="240" width="80" height="80" as="geometry" />
        </mxCell>
        <mxCell id="MbpDUtjtTkJc41aYU_he-170" value="" style="endArrow=none;html=1;rounded=0;entryX=0.5;entryY=0;entryDx=0;entryDy=0;exitX=0;exitY=0.5;exitDx=0;exitDy=0;" edge="1" parent="1" source="MbpDUtjtTkJc41aYU_he-163" target="MbpDUtjtTkJc41aYU_he-168">
          <mxGeometry width="50" height="50" relative="1" as="geometry">
            <mxPoint x="2160" y="410" as="sourcePoint" />
            <mxPoint x="2210" y="360" as="targetPoint" />
          </mxGeometry>
        </mxCell>
        <mxCell id="MbpDUtjtTkJc41aYU_he-171" value="" style="endArrow=none;html=1;rounded=0;entryX=1;entryY=0.5;entryDx=0;entryDy=0;exitX=0.5;exitY=0;exitDx=0;exitDy=0;" edge="1" parent="1" source="MbpDUtjtTkJc41aYU_he-169" target="MbpDUtjtTkJc41aYU_he-163">
          <mxGeometry width="50" height="50" relative="1" as="geometry">
            <mxPoint x="2570" y="410" as="sourcePoint" />
            <mxPoint x="2620" y="360" as="targetPoint" />
          </mxGeometry>
        </mxCell>
        <mxCell id="MbpDUtjtTkJc41aYU_he-174" value="" style="endArrow=none;dashed=1;html=1;dashPattern=1 3;strokeWidth=2;rounded=0;entryX=0.5;entryY=1;entryDx=0;entryDy=0;exitX=0.5;exitY=1;exitDx=0;exitDy=0;" edge="1" parent="1" source="MbpDUtjtTkJc41aYU_he-24" target="MbpDUtjtTkJc41aYU_he-168">
          <mxGeometry width="50" height="50" relative="1" as="geometry">
            <mxPoint x="1130" y="680" as="sourcePoint" />
            <mxPoint x="1910" y="460" as="targetPoint" />
            <Array as="points">
              <mxPoint x="1100" y="680" />
              <mxPoint x="2320" y="680" />
            </Array>
          </mxGeometry>
        </mxCell>
        <mxCell id="MbpDUtjtTkJc41aYU_he-175" value="" style="endArrow=none;dashed=1;html=1;dashPattern=1 3;strokeWidth=2;rounded=0;entryX=0.5;entryY=1;entryDx=0;entryDy=0;exitX=0.5;exitY=1;exitDx=0;exitDy=0;" edge="1" parent="1" source="MbpDUtjtTkJc41aYU_he-83" target="MbpDUtjtTkJc41aYU_he-169">
          <mxGeometry width="50" height="50" relative="1" as="geometry">
            <mxPoint x="2920" y="510" as="sourcePoint" />
            <mxPoint x="2970" y="460" as="targetPoint" />
            <Array as="points">
              <mxPoint x="3371" y="640" />
              <mxPoint x="2680" y="640" />
            </Array>
          </mxGeometry>
        </mxCell>
      </root>
    </mxGraphModel>
  </diagram>
</mxfile>
